<?xml version="1.0" encoding="UTF-8"?>
<svg id="Warstwa_1" data-name="Warstwa 1" xmlns="http://www.w3.org/2000/svg" xmlns:xlink="http://www.w3.org/1999/xlink" viewBox="0 0 682.12 141.37">
  <defs>
    <style>
      .cls-1 {
        fill: #39cb91;
      }

      .cls-2 {
        clip-path: url(#clippath);
      }

      .cls-3 {
        fill: none;
      }
    </style>
    <clipPath id="clippath">
      <rect class="cls-3" width="682.12" height="141.37"/>
    </clipPath>
  </defs>
  <g class="cls-2">
    <g>
      <g>
        <path class="cls-1" d="m32.55,70.59c-.06-5.85,2.36-11.5,6.65-15.48,2.83-2.63,6.31-4.42,10.07-5.18l2.89-.58.69-2.86c2.17-9.01,10.15-15.57,19.41-15.94.29-.01.58-.02.87-.02,6.93,0,13.4,3.43,17.3,9.19l7.64-5.17c-5.85-8.63-15.69-13.61-26.17-13.21-12.41.5-23.23,8.69-27.22,20.26-4.37,1.33-8.39,3.64-11.76,6.78-6.18,5.75-9.67,13.89-9.59,22.33.17,16.42,13.86,29.79,30.54,29.79h22.27v-9.23h-22.27c-11.64,0-21.2-9.26-21.31-20.65Z"/>
        <path class="cls-1" d="m145.94,91.62h-9.24v.65c-.14,14.18-1,18.25-8.33,18.78h-1.89c-.72.05-1.18.05-1.18.05h-28.15s.02-.03.02-.05c2.35-5.32,2.41-12.21,2.48-18.68l.28-22.43h28.46v-9.04h-37.6l-.37,31.38c-.14,14.18-1,18.25-8.33,18.78-.31.02-.62.03-.94.05v9h49.51c2.66,0,5.34-.65,7.55-2.12.55-.38,1.08-.8,1.54-1.25,1.61-1.57,2.74-3.54,3.72-5.67h0c2.35-5.32,2.41-12.21,2.48-18.68l.02-.74Z"/>
      </g>
      <g>
        <rect x="579.3" y="79.85" width="8.73" height="8.73"/>
        <path d="m622.62,45.1c-6.66,0-12.14,2.86-15.55,7.38v-6.43h-5.95v58.39h5.95v-22.77c3.25,5,8.97,7.85,15.55,7.85,11.98,0,20.95-9.44,20.95-22.22s-8.89-22.22-20.95-22.22Zm-.32,38.48c-8.57,0-15.23-7.06-15.23-16.26s6.66-16.26,15.23-16.26,14.92,6.98,14.92,16.26-6.35,16.26-14.92,16.26Z"/>
        <rect x="652.85" y="28.52" width="5.95" height="60.06"/>
        <path d="m193.15,44.47c-10.2,0-18.36,6.73-20.71,16.55h-8.86l-3.1,8.91h11.44c1.31,11.15,9.85,19.6,22.02,19.6,8.81,0,15.87-4.36,18.49-10.55l-8.41-4.13c-1.9,3.33-5.24,5.55-10,5.55-6.27,0-10.87-4.13-11.5-10.47h31.1c.4-1.19.56-2.78.56-4.36,0-11.5-7.62-21.1-21.03-21.1Zm0,8.57c5.11,0,8.87,3.2,9.74,7.95h-19.84c1.44-5.06,5.2-7.95,10.11-7.95Z"/>
        <path d="m244.48,44.47c-5.95,0-10.79,2.22-13.88,6.03v-5.08h-9.76v59.03h10.39v-19.99c3.17,3.33,7.93,5.08,13.17,5.08,12.54,0,21.82-9.84,21.82-22.53s-9.44-22.53-21.74-22.53Zm-1.27,35.54c-6.9,0-11.98-5.4-11.98-13.01s5.08-13.01,11.98-13.01,12.22,5.55,12.22,13.01-5.08,13.01-12.22,13.01Z"/>
        <path d="m291.45,44.47c-8.65,0-16.03,4.52-18.57,11.27l8.49,4.13c1.59-3.89,5.16-6.51,9.68-6.51,4.76,0,7.93,2.78,7.93,6.51v1.43l-12.85,2.06c-10.16,1.67-14.92,6.66-14.92,13.81,0,7.62,5.79,12.38,14.84,12.38,5.71,0,10.16-1.9,13.49-5.55v4.6h9.84v-28.72c0-9.04-7.38-15.39-17.93-15.39Zm7.54,26.5c0,5.95-4.44,10.63-11.03,10.63-3.49,0-5.95-1.82-5.95-4.84s1.98-4.92,6.11-5.71l10.87-1.82v1.75Z"/>
        <path d="m327.55,51.53v-6.11h-9.76v43.16h10.39v-24.04c0-6.59,3.97-10.39,9.84-10.39h3.73v-9.2h-2.54c-5.32,0-9.44,1.67-11.66,6.59Z"/>
        <path d="m364.75,44.47c-8.65,0-16.03,4.52-18.57,11.27l8.49,4.13c1.59-3.89,5.16-6.51,9.68-6.51,4.76,0,7.93,2.78,7.93,6.51v1.43l-12.85,2.06c-10.16,1.67-14.92,6.66-14.92,13.81,0,7.62,5.79,12.38,14.84,12.38,5.71,0,10.16-1.9,13.49-5.55v4.6h9.84v-28.72c0-9.04-7.38-15.39-17.93-15.39Zm7.54,26.5c0,5.95-4.44,10.63-11.03,10.63-3.49,0-5.95-1.82-5.95-4.84s1.98-4.92,6.11-5.71l10.87-1.82v1.75Z"/>
        <path d="m462.73,44.47c-12.77,0-22.85,9.52-22.85,22.53s10.16,22.53,22.85,22.53,22.77-9.44,22.77-22.53-10.16-22.53-22.77-22.53Zm0,35.54c-7.06,0-12.06-5.47-12.06-13.01s5-13.01,12.06-13.01,11.9,5.55,11.9,13.01-5,13.01-11.9,13.01Z"/>
        <path d="m514.14,44.47c-5.4,0-9.92,2.14-12.22,6.27v-5.32h-9.76v43.16h10.39v-25.31c0-5.63,3.57-9.28,8.73-9.28s8.73,3.57,8.73,9.28v25.31h10.39v-27.77c0-9.68-6.74-16.34-16.26-16.34Z"/>
        <path d="m423.68,49.37c-3.27-3.99-7.74-5.98-13.32-5.98-12.04,0-20.82,9.01-20.82,21.21s8.85,21.37,21.05,21.37c5.18,0,9.49-1.75,12.52-5.1v4.71c0,6.38-4.47,10.13-10.77,10.13-.27,0-.53-.01-.8-.02h0s-11.17,0-11.17,0v9.59h11.17v-.03c.27,0,.53.03.8.03,12.36,0,21.21-8.29,21.21-19.7v-41.23h-9.89v5.02Zm-11.8,26.96c-6.7,0-11.48-4.94-11.48-11.64s4.87-11.72,11.48-11.72,11.24,4.94,11.24,11.72-4.71,11.64-11.24,11.64Z"/>
        <path d="m556.7,74.25l-11.24-29.91h-11.25l17.15,43.38-6.88,17.29c-.04.09,10.61.25,10.61.25l24.11-60.93h-11.32l-11.17,29.91Z"/>
      </g>
    </g>
  </g>
</svg>