<svg width="20" height="20" viewBox="0 0 20 20" fill="none" xmlns="http://www.w3.org/2000/svg">
<path d="M10 19.375C8.14581 19.375 6.33325 18.8252 4.79153 17.795C3.24982 16.7649 2.04821 15.3007 1.33863 13.5877C0.629062 11.8746 0.443406 9.98961 0.805142 8.17103C1.16688 6.35246 2.05976 4.682 3.37088 3.37088C4.682 2.05976 6.35246 1.16688 8.17103 0.805142C9.98961 0.443406 11.8746 0.629062 13.5877 1.33863C15.3007 2.04821 16.7649 3.24982 17.795 4.79153C18.8252 6.33325 19.375 8.14581 19.375 10C19.375 12.4864 18.3873 14.871 16.6291 16.6291C14.871 18.3873 12.4864 19.375 10 19.375ZM10 1.875C8.39303 1.875 6.82215 2.35153 5.486 3.24431C4.14985 4.1371 3.10845 5.40605 2.49348 6.8907C1.87852 8.37535 1.71762 10.009 2.03112 11.5851C2.34463 13.1612 3.11846 14.6089 4.25476 15.7453C5.39106 16.8816 6.8388 17.6554 8.4149 17.9689C9.99099 18.2824 11.6247 18.1215 13.1093 17.5065C14.594 16.8916 15.8629 15.8502 16.7557 14.514C17.6485 13.1779 18.125 11.607 18.125 10C18.125 7.84512 17.269 5.7785 15.7453 4.25476C14.2215 2.73103 12.1549 1.875 10 1.875V1.875Z" fill="#6A6A6A"/>
<path d="M10.625 9H9.375V14.375H10.625V9Z" fill="#6A6A6A"/>
<path d="M10 7.5C9.75277 7.5 9.5111 7.42669 9.30554 7.28934C9.09998 7.15199 8.93976 6.95676 8.84515 6.72835C8.75054 6.49995 8.72579 6.24861 8.77402 6.00614C8.82225 5.76366 8.9413 5.54093 9.11612 5.36612C9.29093 5.1913 9.51366 5.07225 9.75614 5.02402C9.99861 4.97579 10.2499 5.00054 10.4784 5.09515C10.7068 5.18976 10.902 5.34998 11.0393 5.55554C11.1767 5.7611 11.25 6.00277 11.25 6.25C11.25 6.58152 11.1183 6.89946 10.8839 7.13388C10.6495 7.3683 10.3315 7.5 10 7.5V7.5Z" fill="#6A6A6A"/>
</svg>
